<svg width="50" height="17" viewBox="0 0 50 17" fill="none" xmlns="http://www.w3.org/2000/svg">
<path d="M32.6888 1.31524C32.5485 1.3153 32.4096 1.34072 32.28 1.39004C32.1504 1.43937 32.0327 1.51164 31.9336 1.60272C31.7377 1.78239 31.6201 2.03618 31.6201 2.29671V14.1431C31.6201 14.4036 31.7328 14.6529 31.9336 14.8371C32.0327 14.9281 32.1505 15.0004 32.2801 15.0497C32.4098 15.099 32.5487 15.1243 32.689 15.1243C32.8294 15.1243 32.9683 15.099 33.0979 15.0497C33.2276 15.0004 33.3453 14.9281 33.4445 14.8371C33.6404 14.6574 33.7579 14.4036 33.7579 14.1431V2.29626C33.7579 2.03573 33.6453 1.78643 33.4445 1.60227C33.3453 1.51114 33.2275 1.43884 33.0978 1.38951C32.9682 1.34018 32.8292 1.31479 32.6888 1.31479V1.31524ZM16.4084 5.49087C16.4084 4.94915 15.9299 4.50985 15.3407 4.50985C14.7516 4.50985 14.2731 4.94915 14.2731 5.49087V14.1422C14.2731 14.6839 14.7516 15.1232 15.3407 15.1232C15.9299 15.1232 16.4084 14.6839 16.4084 14.1422V5.49087Z" fill="#5A646E"/>
<path d="M16.7101 2.29806C16.7031 2.62717 16.5558 2.94068 16.2997 3.17127C16.0437 3.40161 15.6993 3.53064 15.3407 3.53064C14.9821 3.53064 14.6378 3.40161 14.3818 3.17127C14.1257 2.94068 13.9783 2.62717 13.9714 2.29806C13.9712 1.96454 14.1155 1.64463 14.3725 1.40867C14.4995 1.29186 14.6503 1.19917 14.8164 1.13593C14.9825 1.07269 15.1606 1.04014 15.3405 1.04014C15.5203 1.04014 15.6984 1.07269 15.8645 1.13593C16.0306 1.19917 16.1815 1.29186 16.3085 1.40867C16.5655 1.64463 16.7097 1.96454 16.7096 2.29806H16.7101Z" fill="#407B92"/>
<path d="M29.6896 7.64067C28.663 5.50884 26.2343 4.00227 23.4633 4.2628C22.5291 4.35337 21.6304 4.64118 20.8377 5.10367C20.0448 5.56647 19.3793 6.19126 18.8934 6.92916C18.4073 7.66748 18.1138 8.49884 18.0359 9.35836C17.9575 10.2181 18.0976 11.0832 18.4438 11.8846C18.79 12.6862 19.3336 13.4035 20.0321 13.9805C20.7304 14.557 21.5646 14.9777 22.4696 15.2095C23.3744 15.4411 24.3255 15.4774 25.2481 15.3153C26.1708 15.1531 27.0399 14.7971 27.7873 14.2751C27.9131 14.1867 28.0157 14.0736 28.0876 13.9441C28.1596 13.8147 28.1992 13.6719 28.2031 13.5264C28.2112 13.2683 28.1073 13.0178 27.9142 12.8299C27.7211 12.642 27.4546 12.5321 27.1732 12.5242C26.9314 12.5171 26.6942 12.5862 26.5013 12.7201C25.7615 13.244 24.8419 13.5081 23.9085 13.4648C23.1504 13.4293 22.4193 13.1947 21.8026 12.7888C21.1831 12.3835 20.7024 11.8245 20.417 11.1776C20.3781 11.0903 20.3757 10.993 20.4104 10.9043C20.445 10.8155 20.5142 10.7417 20.6046 10.6969C20.6645 10.6674 20.7315 10.652 20.7995 10.652H28.2169C28.5742 10.6534 28.9239 10.5572 29.2215 10.3757C29.5191 10.1942 29.7511 9.9356 29.8879 9.63281C29.9791 9.4318 30.0262 9.21628 30.0265 8.99856C30.0115 8.53124 29.8995 8.07084 29.6964 7.64202L29.6896 7.64067ZM24.0941 6.17992C24.8882 6.1801 25.664 6.39886 26.321 6.80788C26.9785 7.21739 27.4869 7.79837 27.7805 8.47571C27.8053 8.53348 27.8145 8.59589 27.8074 8.65763C27.8001 8.71933 27.7764 8.77845 27.7385 8.82987C27.7006 8.88129 27.6496 8.92347 27.59 8.95274C27.5303 8.98207 27.4637 8.9975 27.396 8.99766H20.7917C20.724 8.99774 20.6573 8.9823 20.5978 8.95274C20.538 8.9231 20.4871 8.88087 20.4489 8.83012C20.4107 8.77936 20.3872 8.71962 20.3803 8.65763C20.3732 8.59589 20.3825 8.53348 20.4073 8.47571C20.7009 7.79837 21.2093 7.21739 21.8667 6.80788C22.5248 6.4009 23.2999 6.18234 24.0936 6.17992H24.0941ZM41.4427 13.4684C40.6813 13.4686 39.9361 13.2676 39.2961 12.8894C38.6554 12.5097 38.1458 11.9707 37.8268 11.3352C37.5112 10.699 37.4015 9.99291 37.5109 9.30112C37.6203 8.60933 37.9442 7.96094 38.4439 7.43315L36.8277 6.16779C36.3045 6.72516 35.9067 7.37198 35.6572 8.07099C35.4071 8.77003 35.3098 9.50743 35.3707 10.241C35.4314 10.9745 35.6499 11.6901 36.0074 12.3463C36.3699 13.0023 36.87 13.5862 37.4791 14.0645C38.0878 14.5427 38.7935 14.906 39.5556 15.1335C40.3175 15.3611 41.121 15.4481 41.9197 15.3896C42.7186 15.3311 43.4969 15.128 44.2098 14.7922C44.923 14.4566 45.557 13.9951 46.0752 13.4343L44.4591 12.1694C44.0871 12.5764 43.6224 12.9036 43.0975 13.1279C42.5731 13.3524 42.0013 13.4685 41.4226 13.468L41.4427 13.4684Z" fill="#5A646E"/>
<path d="M41.4426 4.22956C40.5688 4.22857 39.705 4.40096 38.9106 4.73489C38.1156 5.06891 37.4086 5.55646 36.838 6.1642L38.4493 7.42956C39.1356 6.70414 40.1069 6.25711 41.1512 6.186C42.1955 6.11489 43.2281 6.42548 44.0236 7.05C44.8194 7.67558 45.3139 8.56384 45.3999 9.52187C45.4852 10.48 45.1547 11.4304 44.4801 12.1662L46.0914 13.4311C46.8411 12.6169 47.322 11.6233 47.4774 10.5671C47.6325 9.51065 47.4555 8.43551 46.9671 7.46819C46.4788 6.5013 45.6994 5.6826 44.7206 5.10861C43.7408 4.53675 42.604 4.2319 41.4426 4.22956Z" fill="#407B92"/>
<path d="M12.3043 12.7641C12.1202 12.6177 11.887 12.5335 11.6436 12.5254C11.4001 12.5173 11.1609 12.5858 10.9658 12.7196C10.3785 13.1319 9.67709 13.3852 8.94099 13.4509C8.20488 13.5166 7.46342 13.3921 6.80042 13.0915C6.13736 12.7904 5.57889 12.3258 5.18766 11.7498C4.79651 11.1732 4.58862 10.508 4.5874 9.82888C4.58619 9.1498 4.79171 8.48389 5.18081 7.90614C5.5696 7.32882 6.12647 6.86256 6.78867 6.55993C7.45054 6.257 8.19169 6.13014 8.92814 6.19373C9.66459 6.25732 10.3669 6.50882 10.9555 6.91973C11.1484 7.0561 11.3865 7.12756 11.63 7.12217C11.8735 7.11677 12.1075 7.03484 12.293 6.89008C12.413 6.79575 12.5085 6.67897 12.5722 6.54735C12.6358 6.41574 12.6682 6.272 12.6652 6.12736C12.6623 5.98273 12.6231 5.84078 12.5526 5.71187C12.4821 5.58295 12.3802 5.46931 12.2563 5.38127C11.354 4.7478 10.2763 4.35878 9.14536 4.2583C8.01397 4.15748 6.87442 4.34967 5.85616 4.81306C4.83789 5.27645 3.98171 5.99245 3.38488 6.87975C2.78715 7.76713 2.4715 8.78998 2.47349 9.83305C2.47548 10.8761 2.79503 11.8979 3.39615 12.7834C3.99709 13.6679 4.85606 14.3805 5.87577 14.8404C6.89549 15.3003 8.03523 15.4891 9.16593 15.3855C10.2964 15.2816 11.3726 14.8893 12.2724 14.2531C12.3947 14.1652 12.4942 14.0534 12.5636 13.9258C12.6329 13.7982 12.6705 13.6581 12.6735 13.5156C12.6767 13.3731 12.6452 13.2317 12.5814 13.1017C12.5176 12.9718 12.4231 12.8564 12.3048 12.7641H12.3043Z" fill="#5A646E"/>
</svg>
