<svg width="50" height="31" viewBox="0 0 50 31" fill="none" xmlns="http://www.w3.org/2000/svg">
<g clip-path="url(#clip0_3122_204)">
<path d="M23.1633 29.2038C22.2875 29.1064 21.3929 28.8113 20.784 28.4277C20.4748 28.233 4.88231 17.0733 4.63875 16.8727C3.79098 16.1763 3.53805 15.1347 4.01112 14.2731C4.24063 13.8571 4.61533 13.4912 5.14929 13.1607C5.83313 12.7417 23.2945 3.08397 23.6083 2.95118C23.9924 2.79184 24.517 2.64726 25.0041 2.57054C25.4959 2.49087 26.6669 2.49087 27.1352 2.57054C27.9174 2.70332 28.6153 2.94823 29.168 3.28757C29.4865 3.48231 44.901 14.5062 45.3179 14.8337C45.5989 15.0551 45.9643 15.5331 46.0861 15.837C46.442 16.7222 46.0626 17.7255 45.1212 18.3982C44.9573 18.5133 37.3788 22.7358 31.9362 25.7426L31.7676 25.837L28.2359 23.2227C26.2921 21.7857 24.695 20.5995 24.6856 20.5847C24.6762 20.5729 24.7652 20.5345 24.8823 20.5021C25.2336 20.4077 25.7535 20.1805 26.072 19.9887C26.9619 19.4487 27.4959 18.5635 27.7488 17.212C27.8566 16.6101 27.9034 15.6098 27.9081 13.8098V12.1486H35.6364V9.02082H13.8566V12.1486H22.4795L22.4608 14.4443C22.4467 16.5127 22.4373 16.7576 22.3624 16.9583C22.1891 17.4156 21.8893 17.7107 21.4678 17.8317C21.0135 17.9674 21.1025 18.0117 19.6692 16.9406C18.887 16.3593 18.3577 15.9875 18.3203 15.9963C18.2406 16.017 14.2313 18.115 14.2313 18.1386C14.2359 18.1474 17.2664 20.3841 20.976 23.1105L27.7207 28.0677L27.4256 28.2389C26.5966 28.7287 25.9455 28.9854 25.1633 29.1329C24.8121 29.1979 24.6388 29.2126 24.0673 29.2215C23.6926 29.2244 23.2851 29.2185 23.1633 29.2038V29.2038Z" fill="#CE3342"/>
</g>
<defs>
<clipPath id="clip0_3122_204">
<rect width="50" height="30" fill="white" transform="translate(0 0.867233)"/>
</clipPath>
</defs>
</svg>
