<svg width="300" height="21" viewBox="0 0 300 21" fill="none" xmlns="http://www.w3.org/2000/svg">
<path d="M7.77273 6.27271C7.70455 5.69695 7.42803 5.24998 6.94318 4.9318C6.45833 4.61362 5.86364 4.45453 5.15909 4.45453C4.64394 4.45453 4.19318 4.53786 3.80682 4.70453C3.42424 4.8712 3.125 5.10036 2.90909 5.39203C2.69697 5.6837 2.59091 6.01514 2.59091 6.38635C2.59091 6.69695 2.66477 6.964 2.8125 7.18748C2.96402 7.40718 3.1572 7.59089 3.39205 7.73862C3.62689 7.88256 3.87311 8.00188 4.13068 8.09658C4.38826 8.18748 4.625 8.26135 4.84091 8.31817L6.02273 8.63635C6.32576 8.71589 6.66288 8.82574 7.03409 8.96589C7.40909 9.10605 7.76705 9.29733 8.10795 9.53976C8.45265 9.77839 8.73674 10.0852 8.96023 10.4602C9.18371 10.8352 9.29545 11.2954 9.29545 11.8409C9.29545 12.4697 9.13068 13.0379 8.80114 13.5454C8.47538 14.053 7.99811 14.4564 7.36932 14.7557C6.74432 15.0549 5.98485 15.2045 5.09091 15.2045C4.25758 15.2045 3.53598 15.0701 2.92614 14.8011C2.32008 14.5322 1.8428 14.1572 1.49432 13.6761C1.14962 13.1951 0.954545 12.6363 0.909091 12H2.36364C2.40152 12.4394 2.54924 12.803 2.80682 13.0909C3.06818 13.375 3.39773 13.5871 3.79545 13.7273C4.19697 13.8636 4.62879 13.9318 5.09091 13.9318C5.62879 13.9318 6.11174 13.8447 6.53977 13.6704C6.9678 13.4924 7.30682 13.2462 7.55682 12.9318C7.80682 12.6136 7.93182 12.2424 7.93182 11.8182C7.93182 11.4318 7.82386 11.1174 7.60795 10.875C7.39205 10.6326 7.10795 10.4356 6.75568 10.2841C6.40341 10.1326 6.02273 9.99998 5.61364 9.88635L4.18182 9.47726C3.27273 9.21589 2.55303 8.84279 2.02273 8.35794C1.49242 7.87309 1.22727 7.23862 1.22727 6.45453C1.22727 5.80301 1.40341 5.23483 1.75568 4.74998C2.11174 4.26135 2.58902 3.88256 3.1875 3.61362C3.78977 3.34089 4.46212 3.20453 5.20455 3.20453C5.95455 3.20453 6.62121 3.339 7.20455 3.60794C7.78788 3.87309 8.25 4.23673 8.59091 4.69885C8.93561 5.16097 9.11742 5.68559 9.13636 6.27271H7.77273ZM11.6122 3.36362H13.294L17.2486 13.0227H17.3849L21.3395 3.36362H23.0213V15H21.7031V6.15908H21.5895L17.9531 15H16.6804L13.044 6.15908H12.9304V15H11.6122V3.36362ZM35.6648 9.1818C35.6648 10.4091 35.4432 11.4697 35 12.3636C34.5568 13.2576 33.9489 13.947 33.1761 14.4318C32.4034 14.9167 31.5208 15.1591 30.5284 15.1591C29.536 15.1591 28.6534 14.9167 27.8807 14.4318C27.108 13.947 26.5 13.2576 26.0568 12.3636C25.6136 11.4697 25.392 10.4091 25.392 9.1818C25.392 7.95453 25.6136 6.89392 26.0568 5.99998C26.5 5.10605 27.108 4.41665 27.8807 3.9318C28.6534 3.44695 29.536 3.20453 30.5284 3.20453C31.5208 3.20453 32.4034 3.44695 33.1761 3.9318C33.9489 4.41665 34.5568 5.10605 35 5.99998C35.4432 6.89392 35.6648 7.95453 35.6648 9.1818ZM34.3011 9.1818C34.3011 8.17423 34.1326 7.32385 33.7955 6.63067C33.4621 5.93748 33.0095 5.41286 32.4375 5.0568C31.8693 4.70074 31.233 4.52271 30.5284 4.52271C29.8239 4.52271 29.1856 4.70074 28.6136 5.0568C28.0455 5.41286 27.5928 5.93748 27.2557 6.63067C26.9223 7.32385 26.7557 8.17423 26.7557 9.1818C26.7557 10.1894 26.9223 11.0398 27.2557 11.7329C27.5928 12.4261 28.0455 12.9507 28.6136 13.3068C29.1856 13.6629 29.8239 13.8409 30.5284 13.8409C31.233 13.8409 31.8693 13.6629 32.4375 13.3068C33.0095 12.9507 33.4621 12.4261 33.7955 11.7329C34.1326 11.0398 34.3011 10.1894 34.3011 9.1818ZM47.8523 9.1818C47.8523 10.4091 47.6307 11.4697 47.1875 12.3636C46.7443 13.2576 46.1364 13.947 45.3636 14.4318C44.5909 14.9167 43.7083 15.1591 42.7159 15.1591C41.7235 15.1591 40.8409 14.9167 40.0682 14.4318C39.2955 13.947 38.6875 13.2576 38.2443 12.3636C37.8011 11.4697 37.5795 10.4091 37.5795 9.1818C37.5795 7.95453 37.8011 6.89392 38.2443 5.99998C38.6875 5.10605 39.2955 4.41665 40.0682 3.9318C40.8409 3.44695 41.7235 3.20453 42.7159 3.20453C43.7083 3.20453 44.5909 3.44695 45.3636 3.9318C46.1364 4.41665 46.7443 5.10605 47.1875 5.99998C47.6307 6.89392 47.8523 7.95453 47.8523 9.1818ZM46.4886 9.1818C46.4886 8.17423 46.3201 7.32385 45.983 6.63067C45.6496 5.93748 45.197 5.41286 44.625 5.0568C44.0568 4.70074 43.4205 4.52271 42.7159 4.52271C42.0114 4.52271 41.3731 4.70074 40.8011 5.0568C40.233 5.41286 39.7803 5.93748 39.4432 6.63067C39.1098 7.32385 38.9432 8.17423 38.9432 9.1818C38.9432 10.1894 39.1098 11.0398 39.4432 11.7329C39.7803 12.4261 40.233 12.9507 40.8011 13.3068C41.3731 13.6629 42.0114 13.8409 42.7159 13.8409C43.4205 13.8409 44.0568 13.6629 44.625 13.3068C45.197 12.9507 45.6496 12.4261 45.983 11.7329C46.3201 11.0398 46.4886 10.1894 46.4886 9.1818ZM49.1009 4.61362V3.36362H57.8281V4.61362H54.169V15H52.7599V4.61362H49.1009ZM60.0028 15V3.36362H61.4119V8.54544H67.6165V3.36362H69.0256V15H67.6165V9.79544H61.4119V15H60.0028Z" fill="#959595"/>
<path d="M71.4489 15V3.36362H76.0398C76.9223 3.36362 77.6742 3.53218 78.2955 3.8693C78.9167 4.20264 79.3902 4.66665 79.7159 5.26135C80.0455 5.85226 80.2102 6.53408 80.2102 7.3068C80.2102 8.07953 80.0436 8.76135 79.7102 9.35226C79.3769 9.94317 78.8939 10.4034 78.2614 10.7329C77.6326 11.0625 76.8712 11.2273 75.9773 11.2273H73.0511V9.25567H75.5795C76.053 9.25567 76.4432 9.17423 76.75 9.01135C77.0606 8.84468 77.2917 8.61551 77.4432 8.32385C77.5985 8.02839 77.6761 7.68938 77.6761 7.3068C77.6761 6.92044 77.5985 6.58332 77.4432 6.29544C77.2917 6.00377 77.0606 5.77839 76.75 5.6193C76.4394 5.45642 76.0455 5.37498 75.5682 5.37498H73.9091V15H71.4489ZM82.4702 15H79.8338L83.8509 3.36362H87.0213L91.0327 15H88.3963L85.4815 6.02271H85.3906L82.4702 15ZM82.3054 10.4261H88.5327V12.3466H82.3054V10.4261ZM90.5639 3.36362H93.3196L95.973 8.37498H96.0866L98.7401 3.36362H101.496L97.2514 10.8863V15H94.8082V10.8863L90.5639 3.36362Z" fill="white"/>
<path fill-rule="evenodd" clip-rule="evenodd" d="M111.203 13.8617L111.199 13.8662L111.196 13.8707C111.018 14.1227 110.62 14.1968 110.308 13.9765C110.058 13.8002 109.983 13.4074 110.196 13.097C110.513 12.6927 110.743 12.2201 110.894 11.7581C111.052 11.2771 111.125 10.7305 111.122 10.1944C111.119 9.65838 111.04 9.11262 110.878 8.63333C110.722 8.17295 110.486 7.7028 110.165 7.30194C109.949 6.99377 110.02 6.60017 110.268 6.42122C110.577 6.19769 110.976 6.26749 111.157 6.51761L111.16 6.5221L111.164 6.5265C111.564 7.05405 111.892 7.64018 112.088 8.21523C112.294 8.89171 112.426 9.54608 112.429 10.1875C112.433 10.8624 112.368 11.5013 112.121 12.1302C111.851 12.8151 111.59 13.34 111.203 13.8617ZM114.095 15.1145L114.103 15.1034L114.11 15.0919C114.997 13.6713 115.509 11.957 115.499 10.1711C115.489 8.3857 114.96 6.67737 114.059 5.26646C113.863 4.95669 113.951 4.59045 114.28 4.35261C114.502 4.19288 114.917 4.24944 115.163 4.57952C116.181 6.19416 116.795 8.146 116.806 10.1642C116.817 12.2512 116.224 14.1397 115.222 15.7661C114.991 16.085 114.636 16.1743 114.33 15.9936C113.999 15.7507 113.938 15.337 114.095 15.1145ZM119.286 2.45724L119.295 2.47449L119.305 2.49097C120.684 4.73919 121.45 7.33243 121.465 10.1394C121.48 12.945 120.742 15.5451 119.388 17.8072C119.181 18.1409 118.83 18.235 118.475 18.0697C118.152 17.859 118.065 17.5098 118.234 17.1571C119.385 15.1125 120.101 12.703 120.088 10.1467C120.074 7.60176 119.408 5.19618 118.157 3.15136C117.988 2.80221 118.071 2.45448 118.391 2.24137C118.776 2.05725 119.152 2.1922 119.286 2.45724ZM123.369 0.317663L123.375 0.329447L123.382 0.340883C125.053 3.22941 126.035 6.53184 126.054 10.1149C126.073 13.6943 125.128 17.0039 123.491 19.9079C123.283 20.2378 122.934 20.3302 122.581 20.1656C122.259 19.9556 122.171 19.608 122.338 19.2564C123.915 16.5648 124.764 13.4463 124.747 10.1219C124.729 6.78887 123.772 3.68251 122.243 1.0174C122.051 0.628355 122.186 0.247321 122.454 0.111831C122.846 -0.0870443 123.232 0.0479557 123.369 0.317663Z" fill="white"/>
</svg>
